SplineFontDB: 3.2
FontName: 04b03
FullName: 04b03
FamilyName: 04b03
Weight: Book
Copyright: 1999-2003 / yuji oshimoo / 04@dsg4.com / www.04.jp.org
Version: Macromedia Fonographer 4.1J 03.3.25
ItalicAngle: 0
UnderlinePosition: -143
UnderlineWidth: 20
Ascent: 750
Descent: 250
InvalidEm: 0
sfntRevision: 0x00010000
LayerCount: 2
Layer: 0 1 "Back" 1
Layer: 1 1 "Fore" 0
XUID: [1021 44 -1888042163 31552]
StyleMap: 0x0040
FSType: 1
OS2Version: 0
OS2_WeightWidthSlopeOnly: 0
OS2_UseTypoMetrics: 0
CreationTime: 1048627325
ModificationTime: 1718137555
PfmFamily: 81
TTFWeight: 400
TTFWidth: 5
LineGap: 0
VLineGap: 0
Panose: 0 0 4 0 0 0 0 0 0 0
OS2TypoAscent: 750
OS2TypoAOffset: 0
OS2TypoDescent: -250
OS2TypoDOffset: 0
OS2TypoLinegap: 0
OS2WinAscent: 750
OS2WinAOffset: 0
OS2WinDescent: 250
OS2WinDOffset: 0
HheadAscent: 750
HheadAOffset: 0
HheadDescent: -250
HheadDOffset: 0
OS2SubXSize: 700
OS2SubYSize: 650
OS2SubXOff: 0
OS2SubYOff: 143
OS2SupXSize: 700
OS2SupYSize: 650
OS2SupXOff: 0
OS2SupYOff: 453
OS2StrikeYSize: 50
OS2StrikeYPos: 259
OS2Vendor: 'Alts'
OS2UnicodeRanges: 00000000.00000000.00000000.00000000
DEI: 91125
TtTable: prep
NPUSHB
 13
 9
 9
 8
 8
 3
 3
 2
 2
 1
 1
 0
 0
 1
SCANTYPE
PUSHW_1
 511
SCANCTRL
RCVT
ROUND[Grey]
WCVTP
RCVT
ROUND[Grey]
WCVTP
RCVT
ROUND[Grey]
WCVTP
RCVT
ROUND[Grey]
WCVTP
RCVT
ROUND[Grey]
WCVTP
RCVT
ROUND[Grey]
WCVTP
PUSHB_4
 5
 4
 70
 0
CALL
PUSHB_4
 7
 6
 70
 0
CALL
PUSHB_2
 4
 4
RCVT
ROUND[Grey]
WCVTP
PUSHB_2
 6
 6
RCVT
ROUND[Grey]
WCVTP
EndTTInstrs
TtTable: fpgm
NPUSHB
 1
 0
FDEF
SROUND
RCVT
DUP
PUSHB_1
 3
CINDEX
RCVT
SWAP
SUB
ROUND[Grey]
RTG
SWAP
ROUND[Grey]
ADD
WCVTP
ENDF
EndTTInstrs
ShortTable: cvt  23
  -250
  0
  500
  625
  125
  250
  125
  250
  375
  375
  23143
  4614
  -11592
  27160
  -2006
  24995
  3648
  -4398
  -32710
  10069
  -23929
  1
  13
EndShort
ShortTable: maxp 16
  1
  0
  99
  32
  5
  0
  0
  2
  8
  64
  10
  0
  96
  167
  1
  1
EndShort

StartChar: .notdef
Encoding: 65536 -1 0
Width: 500
GlyphClass: 1
Flags: W
LayerCount: 2
Fore
SplineSet
63 0 m 1,0,-1
 63 750 l 1,1,-1
 438 750 l 1,2,-1
 438 0 l 1,3,-1
 63 0 l 1,0,-1
125 63 m 1,4,-1
 375 63 l 1,5,-1
 375 688 l 1,6,-1
 125 688 l 1,7,-1
 125 63 l 1,4,-1
EndSplineSet
Validated: 1
EndChar

StartChar: exclam
Encoding: 33 33 4
Width: 250
GlyphClass: 1
Flags: W
LayerCount: 2
Fore
SplineSet
125 625 m 1,0,-1
 0 625 l 1,1,-1
 0 250 l 1,2,-1
 125 250 l 1,3,-1
 125 625 l 1,0,-1
125 125 m 1,4,-1
 0 125 l 1,5,-1
 0 0 l 1,6,-1
 125 0 l 1,7,-1
 125 125 l 1,4,-1
EndSplineSet
Validated: 9
EndChar

StartChar: quotedbl
Encoding: 34 34 5
Width: 500
GlyphClass: 1
Flags: W
LayerCount: 2
Fore
SplineSet
0 375 m 1,0,-1
 125 375 l 1,1,-1
 125 625 l 1,2,-1
 0 625 l 1,3,-1
 0 375 l 1,0,-1
250 375 m 1,4,-1
 375 375 l 1,5,-1
 375 625 l 1,6,-1
 250 625 l 1,7,-1
 250 375 l 1,4,-1
EndSplineSet
Validated: 9
EndChar

StartChar: numbersign
Encoding: 35 35 6
Width: 750
GlyphClass: 1
Flags: W
LayerCount: 2
Fore
SplineSet
625 375 m 1,0,-1
 625 500 l 1,1,-1
 500 500 l 1,2,-1
 500 625 l 1,3,-1
 375 625 l 1,4,-1
 375 500 l 1,5,-1
 250 500 l 1,6,-1
 250 625 l 1,7,-1
 125 625 l 1,8,-1
 125 500 l 1,9,-1
 0 500 l 1,10,-1
 0 375 l 1,11,-1
 125 375 l 1,12,-1
 125 250 l 1,13,-1
 0 250 l 1,14,-1
 0 125 l 1,15,-1
 125 125 l 1,16,-1
 125 0 l 1,17,-1
 250 0 l 1,18,-1
 250 125 l 1,19,-1
 375 125 l 1,20,-1
 375 0 l 1,21,-1
 500 0 l 1,22,-1
 500 125 l 1,23,-1
 625 125 l 1,24,-1
 625 250 l 1,25,-1
 500 250 l 1,26,-1
 500 375 l 1,27,-1
 625 375 l 1,0,-1
375 250 m 1,28,-1
 250 250 l 1,29,-1
 250 375 l 1,30,-1
 375 375 l 1,31,-1
 375 250 l 1,28,-1
EndSplineSet
Validated: 9
EndChar

StartChar: dollar
Encoding: 36 36 7
Width: 625
GlyphClass: 1
Flags: W
LayerCount: 2
Fore
SplineSet
375 625 m 1,0,-1
 250 625 l 1,1,-1
 250 500 l 1,2,-1
 125 500 l 1,3,-1
 125 375 l 1,4,-1
 0 375 l 1,5,-1
 0 250 l 1,6,-1
 250 250 l 1,7,-1
 250 375 l 1,8,-1
 500 375 l 1,9,-1
 500 500 l 1,10,-1
 375 500 l 1,11,-1
 375 625 l 1,0,-1
0 125 m 1,12,-1
 0 0 l 1,13,-1
 250 0 l 1,14,-1
 250 -125 l 1,15,-1
 375 -125 l 1,16,-1
 375 125 l 1,17,-1
 500 125 l 1,18,-1
 500 250 l 1,19,-1
 250 250 l 1,20,-1
 250 125 l 1,21,-1
 0 125 l 1,12,-1
EndSplineSet
Validated: 5
EndChar

StartChar: percent
Encoding: 37 37 8
Width: 750
GlyphClass: 1
Flags: W
LayerCount: 2
Fore
SplineSet
125 625 m 1,0,-1
 0 625 l 1,1,-1
 0 500 l 1,2,-1
 125 500 l 1,3,-1
 125 625 l 1,0,-1
500 625 m 1,4,-1
 375 625 l 1,5,-1
 375 375 l 1,6,-1
 500 375 l 1,7,-1
 500 625 l 1,4,-1
125 0 m 1,8,-1
 250 0 l 1,9,-1
 250 250 l 1,10,-1
 125 250 l 1,11,-1
 125 0 l 1,8,-1
250 250 m 1,12,-1
 375 250 l 1,13,-1
 375 375 l 1,14,-1
 250 375 l 1,15,-1
 250 250 l 1,12,-1
500 125 m 1,16,-1
 500 0 l 1,17,-1
 625 0 l 1,18,-1
 625 125 l 1,19,-1
 500 125 l 1,16,-1
EndSplineSet
Validated: 5
EndChar

StartChar: ampersand
Encoding: 38 38 9
Width: 750
GlyphClass: 1
Flags: W
LayerCount: 2
Fore
SplineSet
375 249 m 1,0,-1
 125 249 l 1,1,-1
 125 126 l 1,2,-1
 375 126 l 1,3,-1
 375 249 l 1,0,-1
625 0 m 1,4,-1
 500 0 l 1,5,-1
 500 125 l 1,6,-1
 375 125 l 1,7,-1
 375 0 l 1,8,-1
 125 0 l 1,9,-1
 125 125 l 1,10,-1
 0 125 l 1,11,-1
 0 250 l 1,12,-1
 125 250 l 1,13,-1
 125 375 l 1,14,-1
 0 375 l 1,15,-1
 0 500 l 1,16,-1
 125 500 l 1,17,-1
 125 625 l 1,18,-1
 375 625 l 1,19,-1
 375 500 l 1,20,-1
 125 500 l 1,21,-1
 125 375 l 1,22,-1
 375 375 l 1,23,-1
 375 250 l 1,24,-1
 500 250 l 1,25,-1
 500 375 l 1,26,-1
 625 375 l 1,27,-1
 625 250 l 1,28,-1
 500 250 l 1,29,-1
 500 125 l 1,30,-1
 625 125 l 1,31,-1
 625 0 l 1,4,-1
EndSplineSet
Validated: 5
EndChar

StartChar: quotesingle
Encoding: 39 39 10
Width: 250
GlyphClass: 1
Flags: W
LayerCount: 2
Fore
SplineSet
125 625 m 1,0,-1
 0 625 l 1,1,-1
 0 375 l 1,2,-1
 125 375 l 1,3,-1
 125 625 l 1,0,-1
EndSplineSet
Validated: 9
EndChar

StartChar: parenleft
Encoding: 40 40 11
Width: 375
GlyphClass: 1
Flags: W
LayerCount: 2
Fore
SplineSet
250 625 m 1,0,-1
 125 625 l 1,1,-1
 125 500 l 1,2,-1
 250 500 l 1,3,-1
 250 625 l 1,0,-1
125 500 m 1,4,-1
 0 500 l 1,5,-1
 0 125 l 1,6,-1
 125 125 l 1,7,-1
 125 500 l 1,4,-1
250 0 m 1,8,-1
 250 125 l 1,9,-1
 125 125 l 1,10,-1
 125 0 l 1,11,-1
 250 0 l 1,8,-1
EndSplineSet
Validated: 5
EndChar

StartChar: parenright
Encoding: 41 41 12
Width: 375
GlyphClass: 1
Flags: W
LayerCount: 2
Fore
SplineSet
0 625 m 1,0,-1
 0 500 l 1,1,-1
 125 500 l 1,2,-1
 125 625 l 1,3,-1
 0 625 l 1,0,-1
250 500 m 1,4,-1
 125 500 l 1,5,-1
 125 125 l 1,6,-1
 250 125 l 1,7,-1
 250 500 l 1,4,-1
125 125 m 1,8,-1
 0 125 l 1,9,-1
 0 0 l 1,10,-1
 125 0 l 1,11,-1
 125 125 l 1,8,-1
EndSplineSet
Validated: 5
EndChar

StartChar: asterisk
Encoding: 42 42 13
Width: 500
GlyphClass: 1
Flags: W
LayerCount: 2
Fore
SplineSet
125 500 m 1,0,-1
 125 625 l 1,1,-1
 0 625 l 1,2,-1
 0 500 l 1,3,-1
 125 500 l 1,0,-1
250 375 m 1,4,-1
 250 500 l 1,5,-1
 125 500 l 1,6,-1
 125 375 l 1,7,-1
 250 375 l 1,4,-1
375 500 m 1,8,-1
 375 625 l 1,9,-1
 250 625 l 1,10,-1
 250 500 l 1,11,-1
 375 500 l 1,8,-1
125 250 m 1,12,-1
 125 375 l 1,13,-1
 0 375 l 1,14,-1
 0 250 l 1,15,-1
 125 250 l 1,12,-1
375 250 m 1,16,-1
 375 375 l 1,17,-1
 250 375 l 1,18,-1
 250 250 l 1,19,-1
 375 250 l 1,16,-1
EndSplineSet
Validated: 5
EndChar

StartChar: plus
Encoding: 43 43 14
Width: 500
GlyphClass: 1
Flags: W
LayerCount: 2
Fore
SplineSet
125 125 m 1,0,-1
 250 125 l 1,1,-1
 250 250 l 1,2,-1
 375 250 l 1,3,-1
 375 375 l 1,4,-1
 250 375 l 1,5,-1
 250 500 l 1,6,-1
 125 500 l 1,7,-1
 125 375 l 1,8,-1
 0 375 l 1,9,-1
 0 250 l 1,10,-1
 125 250 l 1,11,-1
 125 125 l 1,0,-1
EndSplineSet
Validated: 9
EndChar

StartChar: comma
Encoding: 44 44 15
Width: 375
GlyphClass: 1
Flags: W
LayerCount: 2
Fore
SplineSet
125 0 m 1,0,-1
 250 0 l 1,1,-1
 250 125 l 1,2,-1
 125 125 l 1,3,-1
 125 0 l 1,0,-1
0 -125 m 1,4,-1
 125 -125 l 1,5,-1
 125 0 l 1,6,-1
 0 0 l 1,7,-1
 0 -125 l 1,4,-1
EndSplineSet
Validated: 5
EndChar

StartChar: hyphen
Encoding: 45 45 16
AltUni2: 002010.ffffffff.0 002010.ffffffff.0
Width: 500
GlyphClass: 1
Flags: W
LayerCount: 2
Fore
SplineSet
0 375 m 1,0,-1
 0 250 l 1,1,-1
 375 250 l 1,2,-1
 375 375 l 1,3,-1
 0 375 l 1,0,-1
EndSplineSet
Validated: 9
EndChar

StartChar: period
Encoding: 46 46 17
Width: 250
GlyphClass: 1
Flags: W
LayerCount: 2
Fore
SplineSet
0 0 m 1,0,-1
 125 0 l 1,1,-1
 125 125 l 1,2,-1
 0 125 l 1,3,-1
 0 0 l 1,0,-1
EndSplineSet
Validated: 9
EndChar

StartChar: slash
Encoding: 47 47 18
Width: 750
GlyphClass: 1
Flags: W
LayerCount: 2
Fore
SplineSet
375 375 m 1,0,-1
 500 375 l 1,1,-1
 500 500 l 1,2,-1
 375 500 l 1,3,-1
 375 375 l 1,0,-1
500 625 m 1,4,-1
 500 500 l 1,5,-1
 625 500 l 1,6,-1
 625 625 l 1,7,-1
 500 625 l 1,4,-1
125 125 m 1,8,-1
 250 125 l 1,9,-1
 250 250 l 1,10,-1
 125 250 l 1,11,-1
 125 125 l 1,8,-1
250 250 m 1,12,-1
 375 250 l 1,13,-1
 375 375 l 1,14,-1
 250 375 l 1,15,-1
 250 250 l 1,12,-1
0 0 m 1,16,-1
 125 0 l 1,17,-1
 125 125 l 1,18,-1
 0 125 l 1,19,-1
 0 0 l 1,16,-1
EndSplineSet
Validated: 5
EndChar

StartChar: zero
Encoding: 48 48 19
Width: 625
GlyphClass: 1
Flags: W
LayerCount: 2
Fore
SplineSet
375 126 m 1,0,-1
 375 499 l 1,1,-1
 125 499 l 1,2,-1
 125 126 l 1,3,-1
 375 126 l 1,0,-1
125 125 m 1,4,-1
 0 125 l 1,5,-1
 0 500 l 1,6,-1
 125 500 l 1,7,-1
 125 625 l 1,8,-1
 375 625 l 1,9,-1
 375 500 l 1,10,-1
 500 500 l 1,11,-1
 500 125 l 1,12,-1
 375 125 l 1,13,-1
 375 0 l 1,14,-1
 125 0 l 1,15,-1
 125 125 l 1,4,-1
EndSplineSet
Validated: 1
EndChar

StartChar: one
Encoding: 49 49 20
Width: 375
GlyphClass: 1
Flags: W
LayerCount: 2
Fore
SplineSet
125 0 m 1,0,-1
 250 0 l 1,1,-1
 250 625 l 1,2,-1
 0 625 l 1,3,-1
 0 500 l 1,4,-1
 125 500 l 1,5,-1
 125 0 l 1,0,-1
EndSplineSet
Validated: 9
EndChar

StartChar: two
Encoding: 50 50 21
Width: 625
GlyphClass: 1
Flags: W
LayerCount: 2
Fore
SplineSet
0 625 m 1,0,-1
 0 500 l 1,1,-1
 375 500 l 1,2,-1
 375 625 l 1,3,-1
 0 625 l 1,0,-1
375 375 m 1,4,-1
 500 375 l 1,5,-1
 500 500 l 1,6,-1
 375 500 l 1,7,-1
 375 375 l 1,4,-1
125 375 m 1,8,-1
 125 250 l 1,9,-1
 375 250 l 1,10,-1
 375 375 l 1,11,-1
 125 375 l 1,8,-1
0 0 m 1,12,-1
 500 0 l 1,13,-1
 500 125 l 1,14,-1
 125 125 l 1,15,-1
 125 250 l 1,16,-1
 0 250 l 1,17,-1
 0 0 l 1,12,-1
EndSplineSet
Validated: 5
EndChar

StartChar: three
Encoding: 51 51 22
Width: 625
GlyphClass: 1
Flags: W
LayerCount: 2
Fore
SplineSet
0 625 m 1,0,-1
 0 500 l 1,1,-1
 375 500 l 1,2,-1
 375 625 l 1,3,-1
 0 625 l 1,0,-1
375 375 m 1,4,-1
 500 375 l 1,5,-1
 500 500 l 1,6,-1
 375 500 l 1,7,-1
 375 375 l 1,4,-1
125 375 m 1,8,-1
 125 250 l 1,9,-1
 375 250 l 1,10,-1
 375 375 l 1,11,-1
 125 375 l 1,8,-1
500 125 m 1,12,-1
 500 250 l 1,13,-1
 375 250 l 1,14,-1
 375 125 l 1,15,-1
 500 125 l 1,12,-1
0 125 m 1,16,-1
 0 0 l 1,17,-1
 375 0 l 1,18,-1
 375 125 l 1,19,-1
 0 125 l 1,16,-1
EndSplineSet
Validated: 5
EndChar

StartChar: four
Encoding: 52 52 23
Width: 625
GlyphClass: 1
Flags: W
LayerCount: 2
Fore
SplineSet
125 374 m 1,0,-1
 125 250 l 1,1,-1
 250 250 l 1,2,-1
 250 374 l 1,3,-1
 125 374 l 1,0,-1
375 625 m 1,4,-1
 375 250 l 1,5,-1
 500 250 l 1,6,-1
 500 125 l 1,7,-1
 375 125 l 1,8,-1
 375 0 l 1,9,-1
 250 0 l 1,10,-1
 250 125 l 1,11,-1
 0 125 l 1,12,-1
 0 375 l 1,13,-1
 125 375 l 1,14,-1
 125 500 l 1,15,-1
 250 500 l 1,16,-1
 250 625 l 1,17,-1
 375 625 l 1,4,-1
EndSplineSet
Validated: 1
EndChar

StartChar: five
Encoding: 53 53 24
Width: 625
GlyphClass: 1
Flags: W
LayerCount: 2
Fore
SplineSet
125 375 m 1,0,-1
 125 500 l 1,1,-1
 500 500 l 1,2,-1
 500 625 l 1,3,-1
 0 625 l 1,4,-1
 0 250 l 1,5,-1
 375 250 l 1,6,-1
 375 375 l 1,7,-1
 125 375 l 1,0,-1
500 250 m 1,8,-1
 375 250 l 1,9,-1
 375 125 l 1,10,-1
 500 125 l 1,11,-1
 500 250 l 1,8,-1
375 0 m 1,12,-1
 375 125 l 1,13,-1
 0 125 l 1,14,-1
 0 0 l 1,15,-1
 375 0 l 1,12,-1
EndSplineSet
Validated: 5
EndChar

StartChar: six
Encoding: 54 54 25
Width: 625
GlyphClass: 1
Flags: W
LayerCount: 2
Fore
SplineSet
375 126 m 1,0,-1
 375 249 l 1,1,-1
 125 249 l 1,2,-1
 125 126 l 1,3,-1
 375 126 l 1,0,-1
125 125 m 1,4,-1
 0 125 l 1,5,-1
 0 500 l 1,6,-1
 125 500 l 1,7,-1
 125 625 l 1,8,-1
 375 625 l 1,9,-1
 375 500 l 1,10,-1
 125 500 l 1,11,-1
 125 375 l 1,12,-1
 375 375 l 1,13,-1
 375 250 l 1,14,-1
 500 250 l 1,15,-1
 500 125 l 1,16,-1
 375 125 l 1,17,-1
 375 0 l 1,18,-1
 125 0 l 1,19,-1
 125 125 l 1,4,-1
EndSplineSet
Validated: 5
EndChar

StartChar: seven
Encoding: 55 55 26
Width: 625
GlyphClass: 1
Flags: W
LayerCount: 2
Fore
SplineSet
0 625 m 1,0,-1
 0 500 l 1,1,-1
 375 500 l 1,2,-1
 375 375 l 1,3,-1
 500 375 l 1,4,-1
 500 625 l 1,5,-1
 0 625 l 1,0,-1
125 0 m 1,6,-1
 250 0 l 1,7,-1
 250 250 l 1,8,-1
 125 250 l 1,9,-1
 125 0 l 1,6,-1
250 250 m 1,10,-1
 375 250 l 1,11,-1
 375 375 l 1,12,-1
 250 375 l 1,13,-1
 250 250 l 1,10,-1
EndSplineSet
Validated: 5
EndChar

StartChar: eight
Encoding: 56 56 27
Width: 625
GlyphClass: 1
Flags: W
LayerCount: 2
Fore
SplineSet
375 376 m 1,0,-1
 375 499 l 1,1,-1
 125 499 l 1,2,-1
 125 376 l 1,3,-1
 375 376 l 1,0,-1
375 126 m 1,4,-1
 375 249 l 1,5,-1
 125 249 l 1,6,-1
 125 126 l 1,7,-1
 375 126 l 1,4,-1
125 125 m 1,8,-1
 0 125 l 1,9,-1
 0 250 l 1,10,-1
 125 250 l 1,11,-1
 125 375 l 1,12,-1
 0 375 l 1,13,-1
 0 500 l 1,14,-1
 125 500 l 1,15,-1
 125 625 l 1,16,-1
 375 625 l 1,17,-1
 375 500 l 1,18,-1
 500 500 l 1,19,-1
 500 375 l 1,20,-1
 375 375 l 1,21,-1
 375 250 l 1,22,-1
 500 250 l 1,23,-1
 500 125 l 1,24,-1
 375 125 l 1,25,-1
 375 0 l 1,26,-1
 125 0 l 1,27,-1
 125 125 l 1,8,-1
EndSplineSet
Validated: 1
EndChar

StartChar: nine
Encoding: 57 57 28
Width: 625
GlyphClass: 1
Flags: W
LayerCount: 2
Fore
SplineSet
125 499 m 1,0,-1
 125 376 l 1,1,-1
 375 376 l 1,2,-1
 375 499 l 1,3,-1
 125 499 l 1,0,-1
125 125 m 1,4,-1
 375 125 l 1,5,-1
 375 250 l 1,6,-1
 125 250 l 1,7,-1
 125 375 l 1,8,-1
 0 375 l 1,9,-1
 0 500 l 1,10,-1
 125 500 l 1,11,-1
 125 625 l 1,12,-1
 375 625 l 1,13,-1
 375 500 l 1,14,-1
 500 500 l 1,15,-1
 500 125 l 1,16,-1
 375 125 l 1,17,-1
 375 0 l 1,18,-1
 125 0 l 1,19,-1
 125 125 l 1,4,-1
EndSplineSet
Validated: 5
EndChar

StartChar: colon
Encoding: 58 58 29
Width: 250
GlyphClass: 1
Flags: W
LayerCount: 2
Fore
SplineSet
0 375 m 1,0,-1
 125 375 l 1,1,-1
 125 500 l 1,2,-1
 0 500 l 1,3,-1
 0 375 l 1,0,-1
0 125 m 1,4,-1
 125 125 l 1,5,-1
 125 250 l 1,6,-1
 0 250 l 1,7,-1
 0 125 l 1,4,-1
EndSplineSet
Validated: 9
EndChar

StartChar: semicolon
Encoding: 59 59 30
Width: 250
GlyphClass: 1
Flags: W
LayerCount: 2
Fore
SplineSet
125 500 m 1,0,-1
 0 500 l 1,1,-1
 0 375 l 1,2,-1
 125 375 l 1,3,-1
 125 500 l 1,0,-1
125 250 m 1,4,-1
 0 250 l 1,5,-1
 0 0 l 1,6,-1
 125 0 l 1,7,-1
 125 250 l 1,4,-1
EndSplineSet
Validated: 9
EndChar

StartChar: less
Encoding: 60 60 31
Width: 500
GlyphClass: 1
Flags: W
LayerCount: 2
Fore
SplineSet
125 375 m 1,0,-1
 250 375 l 1,1,-1
 250 500 l 1,2,-1
 125 500 l 1,3,-1
 125 375 l 1,0,-1
250 500 m 1,4,-1
 375 500 l 1,5,-1
 375 625 l 1,6,-1
 250 625 l 1,7,-1
 250 500 l 1,4,-1
0 250 m 1,8,-1
 125 250 l 1,9,-1
 125 375 l 1,10,-1
 0 375 l 1,11,-1
 0 250 l 1,8,-1
250 125 m 1,12,-1
 250 250 l 1,13,-1
 125 250 l 1,14,-1
 125 125 l 1,15,-1
 250 125 l 1,12,-1
375 0 m 1,16,-1
 375 125 l 1,17,-1
 250 125 l 1,18,-1
 250 0 l 1,19,-1
 375 0 l 1,16,-1
EndSplineSet
Validated: 5
EndChar

StartChar: equal
Encoding: 61 61 32
Width: 500
GlyphClass: 1
Flags: W
LayerCount: 2
Fore
SplineSet
0 500 m 1,0,-1
 0 375 l 1,1,-1
 375 375 l 1,2,-1
 375 500 l 1,3,-1
 0 500 l 1,0,-1
0 250 m 1,4,-1
 0 125 l 1,5,-1
 375 125 l 1,6,-1
 375 250 l 1,7,-1
 0 250 l 1,4,-1
EndSplineSet
Validated: 9
EndChar

StartChar: greater
Encoding: 62 62 33
Width: 500
GlyphClass: 1
Flags: W
LayerCount: 2
Fore
SplineSet
0 625 m 1,0,-1
 0 500 l 1,1,-1
 125 500 l 1,2,-1
 125 625 l 1,3,-1
 0 625 l 1,0,-1
125 500 m 1,4,-1
 125 375 l 1,5,-1
 250 375 l 1,6,-1
 250 500 l 1,7,-1
 125 500 l 1,4,-1
125 125 m 1,8,-1
 250 125 l 1,9,-1
 250 250 l 1,10,-1
 125 250 l 1,11,-1
 125 125 l 1,8,-1
250 250 m 1,12,-1
 375 250 l 1,13,-1
 375 375 l 1,14,-1
 250 375 l 1,15,-1
 250 250 l 1,12,-1
0 0 m 1,16,-1
 125 0 l 1,17,-1
 125 125 l 1,18,-1
 0 125 l 1,19,-1
 0 0 l 1,16,-1
EndSplineSet
Validated: 5
EndChar

StartChar: question
Encoding: 63 63 34
Width: 625
GlyphClass: 1
Flags: W
LayerCount: 2
Fore
SplineSet
0 625 m 1,0,-1
 0 500 l 1,1,-1
 375 500 l 1,2,-1
 375 625 l 1,3,-1
 0 625 l 1,0,-1
375 375 m 1,4,-1
 500 375 l 1,5,-1
 500 500 l 1,6,-1
 375 500 l 1,7,-1
 375 375 l 1,4,-1
125 375 m 1,8,-1
 125 250 l 1,9,-1
 375 250 l 1,10,-1
 375 375 l 1,11,-1
 125 375 l 1,8,-1
125 0 m 1,12,-1
 250 0 l 1,13,-1
 250 125 l 1,14,-1
 125 125 l 1,15,-1
 125 0 l 1,12,-1
EndSplineSet
Validated: 5
EndChar

StartChar: at
Encoding: 64 64 35
Width: 750
GlyphClass: 1
Flags: W
LayerCount: 2
Fore
SplineSet
500 126 m 1,0,-1
 500 250 l 1,1,-1
 375 250 l 1,2,-1
 375 126 l 1,3,-1
 500 126 l 1,0,-1
500 499 m 1,4,-1
 125 499 l 1,5,-1
 125 126 l 1,6,-1
 250 126 l 1,7,-1
 250 375 l 1,8,-1
 500 375 l 1,9,-1
 500 499 l 1,4,-1
625 500 m 1,10,-1
 625 125 l 1,11,-1
 500 125 l 1,12,-1
 500 0 l 1,13,-1
 125 0 l 1,14,-1
 125 125 l 1,15,-1
 0 125 l 1,16,-1
 0 500 l 1,17,-1
 125 500 l 1,18,-1
 125 625 l 1,19,-1
 500 625 l 1,20,-1
 500 500 l 1,21,-1
 625 500 l 1,10,-1
EndSplineSet
Validated: 1
EndChar

StartChar: A
Encoding: 65 65 36
Width: 625
GlyphClass: 1
Flags: W
LayerCount: 2
Fore
SplineSet
125 500 m 1,0,-1
 125 625 l 1,1,-1
 375 625 l 1,2,-1
 375 500 l 1,3,-1
 500 500 l 1,4,-1
 500 0 l 1,5,-1
 375 0 l 1,6,-1
 375 125 l 1,7,-1
 125 125 l 1,8,-1
 125 0 l 1,9,-1
 0 0 l 1,10,-1
 0 500 l 1,11,-1
 125 500 l 1,0,-1
375 250 m 1,12,-1
 375 499 l 1,13,-1
 125 499 l 1,14,-1
 125 250 l 1,15,-1
 375 250 l 1,12,-1
EndSplineSet
Validated: 1
EndChar

StartChar: B
Encoding: 66 66 37
Width: 625
GlyphClass: 1
Flags: W
LayerCount: 2
Fore
SplineSet
125 376 m 1,0,-1
 375 376 l 1,1,-1
 375 499 l 1,2,-1
 125 499 l 1,3,-1
 125 376 l 1,0,-1
375 249 m 1,4,-1
 125 249 l 1,5,-1
 125 126 l 1,6,-1
 375 126 l 1,7,-1
 375 249 l 1,4,-1
500 125 m 1,8,-1
 375 125 l 1,9,-1
 375 0 l 1,10,-1
 0 0 l 1,11,-1
 0 625 l 1,12,-1
 375 625 l 1,13,-1
 375 500 l 1,14,-1
 500 500 l 1,15,-1
 500 375 l 1,16,-1
 375 375 l 1,17,-1
 375 250 l 1,18,-1
 500 250 l 1,19,-1
 500 125 l 1,8,-1
EndSplineSet
Validated: 1
EndChar

StartChar: C
Encoding: 67 67 38
Width: 500
GlyphClass: 1
Flags: W
LayerCount: 2
Fore
SplineSet
375 500 m 1,0,-1
 375 625 l 1,1,-1
 125 625 l 1,2,-1
 125 500 l 1,3,-1
 375 500 l 1,0,-1
125 500 m 1,4,-1
 0 500 l 1,5,-1
 0 125 l 1,6,-1
 125 125 l 1,7,-1
 125 500 l 1,4,-1
375 0 m 1,8,-1
 375 125 l 1,9,-1
 125 125 l 1,10,-1
 125 0 l 1,11,-1
 375 0 l 1,8,-1
EndSplineSet
Validated: 5
EndChar

StartChar: D
Encoding: 68 68 39
Width: 625
GlyphClass: 1
Flags: W
LayerCount: 2
Fore
SplineSet
375 126 m 1,0,-1
 375 499 l 1,1,-1
 125 499 l 1,2,-1
 125 126 l 1,3,-1
 375 126 l 1,0,-1
375 0 m 1,4,-1
 0 0 l 1,5,-1
 0 625 l 1,6,-1
 375 625 l 1,7,-1
 375 500 l 1,8,-1
 500 500 l 1,9,-1
 500 125 l 1,10,-1
 375 125 l 1,11,-1
 375 0 l 1,4,-1
EndSplineSet
Validated: 1
EndChar

StartChar: E
Encoding: 69 69 40
Width: 500
GlyphClass: 1
Flags: W
LayerCount: 2
Fore
SplineSet
375 0 m 1,0,-1
 375 125 l 1,1,-1
 125 125 l 1,2,-1
 125 250 l 1,3,-1
 375 250 l 1,4,-1
 375 375 l 1,5,-1
 125 375 l 1,6,-1
 125 500 l 1,7,-1
 375 500 l 1,8,-1
 375 625 l 1,9,-1
 0 625 l 1,10,-1
 0 0 l 1,11,-1
 375 0 l 1,0,-1
EndSplineSet
Validated: 9
EndChar

StartChar: F
Encoding: 70 70 41
Width: 500
GlyphClass: 1
Flags: W
LayerCount: 2
Fore
SplineSet
125 250 m 1,0,-1
 375 250 l 1,1,-1
 375 375 l 1,2,-1
 125 375 l 1,3,-1
 125 500 l 1,4,-1
 375 500 l 1,5,-1
 375 625 l 1,6,-1
 0 625 l 1,7,-1
 0 0 l 1,8,-1
 125 0 l 1,9,-1
 125 250 l 1,0,-1
EndSplineSet
Validated: 9
EndChar

StartChar: G
Encoding: 71 71 42
Width: 625
GlyphClass: 1
Flags: W
LayerCount: 2
Fore
SplineSet
500 500 m 1,0,-1
 500 625 l 1,1,-1
 125 625 l 1,2,-1
 125 500 l 1,3,-1
 500 500 l 1,0,-1
125 500 m 1,4,-1
 0 500 l 1,5,-1
 0 125 l 1,6,-1
 125 125 l 1,7,-1
 125 500 l 1,4,-1
500 0 m 1,8,-1
 125 0 l 1,9,-1
 125 125 l 1,10,-1
 375 125 l 1,11,-1
 375 250 l 1,12,-1
 250 250 l 1,13,-1
 250 375 l 1,14,-1
 500 375 l 1,15,-1
 500 0 l 1,8,-1
EndSplineSet
Validated: 5
EndChar

StartChar: H
Encoding: 72 72 43
Width: 625
GlyphClass: 1
Flags: W
LayerCount: 2
Fore
SplineSet
375 375 m 1,0,-1
 125 375 l 1,1,-1
 125 625 l 1,2,-1
 0 625 l 1,3,-1
 0 0 l 1,4,-1
 125 0 l 1,5,-1
 125 250 l 1,6,-1
 375 250 l 1,7,-1
 375 0 l 1,8,-1
 500 0 l 1,9,-1
 500 625 l 1,10,-1
 375 625 l 1,11,-1
 375 375 l 1,0,-1
EndSplineSet
Validated: 9
EndChar

StartChar: I
Encoding: 73 73 44
Width: 500
GlyphClass: 1
Flags: W
LayerCount: 2
Fore
SplineSet
250 500 m 1,0,-1
 375 500 l 1,1,-1
 375 625 l 1,2,-1
 0 625 l 1,3,-1
 0 500 l 1,4,-1
 125 500 l 1,5,-1
 125 125 l 1,6,-1
 0 125 l 1,7,-1
 0 0 l 1,8,-1
 375 0 l 1,9,-1
 375 125 l 1,10,-1
 250 125 l 1,11,-1
 250 500 l 1,0,-1
EndSplineSet
Validated: 9
EndChar

StartChar: J
Encoding: 74 74 45
Width: 625
GlyphClass: 1
Flags: W
LayerCount: 2
Fore
SplineSet
250 625 m 1,0,-1
 250 500 l 1,1,-1
 375 500 l 1,2,-1
 375 125 l 1,3,-1
 500 125 l 1,4,-1
 500 625 l 1,5,-1
 250 625 l 1,0,-1
0 250 m 1,6,-1
 0 125 l 1,7,-1
 125 125 l 1,8,-1
 125 250 l 1,9,-1
 0 250 l 1,6,-1
125 125 m 1,10,-1
 125 0 l 1,11,-1
 375 0 l 1,12,-1
 375 125 l 1,13,-1
 125 125 l 1,10,-1
EndSplineSet
Validated: 5
EndChar

StartChar: K
Encoding: 75 75 46
Width: 625
GlyphClass: 1
Flags: W
LayerCount: 2
Fore
SplineSet
125 625 m 1,0,-1
 0 625 l 1,1,-1
 0 0 l 1,2,-1
 125 0 l 1,3,-1
 125 250 l 1,4,-1
 250 250 l 1,5,-1
 250 375 l 1,6,-1
 125 375 l 1,7,-1
 125 625 l 1,0,-1
375 500 m 1,8,-1
 500 500 l 1,9,-1
 500 625 l 1,10,-1
 375 625 l 1,11,-1
 375 500 l 1,8,-1
250 375 m 1,12,-1
 375 375 l 1,13,-1
 375 500 l 1,14,-1
 250 500 l 1,15,-1
 250 375 l 1,12,-1
375 125 m 1,16,-1
 375 250 l 1,17,-1
 250 250 l 1,18,-1
 250 125 l 1,19,-1
 375 125 l 1,16,-1
500 0 m 1,20,-1
 500 125 l 1,21,-1
 375 125 l 1,22,-1
 375 0 l 1,23,-1
 500 0 l 1,20,-1
EndSplineSet
Validated: 5
EndChar

StartChar: L
Encoding: 76 76 47
Width: 500
GlyphClass: 1
Flags: W
LayerCount: 2
Fore
SplineSet
375 0 m 1,0,-1
 375 125 l 1,1,-1
 125 125 l 1,2,-1
 125 625 l 1,3,-1
 0 625 l 1,4,-1
 0 0 l 1,5,-1
 375 0 l 1,0,-1
EndSplineSet
Validated: 9
EndChar

StartChar: M
Encoding: 77 77 48
Width: 750
GlyphClass: 1
Flags: W
LayerCount: 2
Fore
SplineSet
125 500 m 1,0,-1
 125 625 l 1,1,-1
 0 625 l 1,2,-1
 0 0 l 1,3,-1
 125 0 l 1,4,-1
 125 375 l 1,5,-1
 250 375 l 1,6,-1
 250 500 l 1,7,-1
 125 500 l 1,0,-1
250 250 m 1,8,-1
 375 250 l 1,9,-1
 375 375 l 1,10,-1
 250 375 l 1,11,-1
 250 250 l 1,8,-1
500 500 m 1,12,-1
 375 500 l 1,13,-1
 375 375 l 1,14,-1
 500 375 l 1,15,-1
 500 0 l 1,16,-1
 625 0 l 1,17,-1
 625 625 l 1,18,-1
 500 625 l 1,19,-1
 500 500 l 1,12,-1
EndSplineSet
Validated: 5
EndChar

StartChar: N
Encoding: 78 78 49
Width: 625
GlyphClass: 1
Flags: W
LayerCount: 2
Fore
SplineSet
375 250 m 1,0,-1
 375 0 l 1,1,-1
 500 0 l 1,2,-1
 500 625 l 1,3,-1
 375 625 l 1,4,-1
 375 375 l 1,5,-1
 250 375 l 1,6,-1
 250 250 l 1,7,-1
 375 250 l 1,0,-1
125 375 m 1,8,-1
 250 375 l 1,9,-1
 250 500 l 1,10,-1
 125 500 l 1,11,-1
 125 625 l 1,12,-1
 0 625 l 1,13,-1
 0 0 l 1,14,-1
 125 0 l 1,15,-1
 125 375 l 1,8,-1
EndSplineSet
Validated: 5
EndChar

StartChar: O
Encoding: 79 79 50
Width: 625
GlyphClass: 1
Flags: W
LayerCount: 2
Fore
SplineSet
375 126 m 1,0,-1
 375 499 l 1,1,-1
 125 499 l 1,2,-1
 125 126 l 1,3,-1
 375 126 l 1,0,-1
125 125 m 1,4,-1
 0 125 l 1,5,-1
 0 500 l 1,6,-1
 125 500 l 1,7,-1
 125 625 l 1,8,-1
 375 625 l 1,9,-1
 375 500 l 1,10,-1
 500 500 l 1,11,-1
 500 125 l 1,12,-1
 375 125 l 1,13,-1
 375 0 l 1,14,-1
 125 0 l 1,15,-1
 125 125 l 1,4,-1
EndSplineSet
Validated: 1
EndChar

StartChar: P
Encoding: 80 80 51
Width: 625
GlyphClass: 1
Flags: W
LayerCount: 2
Fore
SplineSet
375 500 m 1,0,-1
 500 500 l 1,1,-1
 500 250 l 1,2,-1
 375 250 l 1,3,-1
 375 125 l 1,4,-1
 125 125 l 1,5,-1
 125 0 l 1,6,-1
 0 0 l 1,7,-1
 0 625 l 1,8,-1
 375 625 l 1,9,-1
 375 500 l 1,0,-1
125 251 m 1,10,-1
 375 251 l 1,11,-1
 375 499 l 1,12,-1
 125 499 l 1,13,-1
 125 251 l 1,10,-1
EndSplineSet
Validated: 1
EndChar

StartChar: Q
Encoding: 81 81 52
Width: 625
GlyphClass: 1
Flags: W
LayerCount: 2
Fore
SplineSet
375 126 m 1,0,-1
 375 499 l 1,1,-1
 125 499 l 1,2,-1
 125 126 l 1,3,-1
 375 126 l 1,0,-1
125 125 m 1,4,-1
 0 125 l 1,5,-1
 0 500 l 1,6,-1
 125 500 l 1,7,-1
 125 625 l 1,8,-1
 375 625 l 1,9,-1
 375 500 l 1,10,-1
 500 500 l 1,11,-1
 500 125 l 1,12,-1
 375 125 l 1,13,-1
 375 0 l 1,14,-1
 500 0 l 1,15,-1
 500 -125 l 1,16,-1
 375 -125 l 1,17,-1
 375 0 l 1,18,-1
 125 0 l 1,19,-1
 125 125 l 1,4,-1
EndSplineSet
Validated: 5
EndChar

StartChar: R
Encoding: 82 82 53
Width: 625
GlyphClass: 1
Flags: W
LayerCount: 2
Fore
SplineSet
500 0 m 1,0,-1
 375 0 l 1,1,-1
 375 125 l 1,2,-1
 125 125 l 1,3,-1
 125 0 l 1,4,-1
 0 0 l 1,5,-1
 0 625 l 1,6,-1
 375 625 l 1,7,-1
 375 501 l 1,8,-1
 125 501 l 1,9,-1
 125 251 l 1,10,-1
 375 251 l 1,11,-1
 375 500 l 1,12,-1
 500 500 l 1,13,-1
 500 250 l 1,14,-1
 375 250 l 1,15,-1
 375 125 l 1,16,-1
 500 125 l 1,17,-1
 500 0 l 1,0,-1
EndSplineSet
Validated: 5
EndChar

StartChar: S
Encoding: 83 83 54
Width: 625
GlyphClass: 1
Flags: W
LayerCount: 2
Fore
SplineSet
0 375 m 1,0,-1
 125 375 l 1,1,-1
 125 500 l 1,2,-1
 0 500 l 1,3,-1
 0 375 l 1,0,-1
125 625 m 1,4,-1
 125 500 l 1,5,-1
 500 500 l 1,6,-1
 500 625 l 1,7,-1
 125 625 l 1,4,-1
375 250 m 1,8,-1
 375 375 l 1,9,-1
 125 375 l 1,10,-1
 125 250 l 1,11,-1
 375 250 l 1,8,-1
500 125 m 1,12,-1
 500 250 l 1,13,-1
 375 250 l 1,14,-1
 375 125 l 1,15,-1
 500 125 l 1,12,-1
0 125 m 1,16,-1
 0 0 l 1,17,-1
 375 0 l 1,18,-1
 375 125 l 1,19,-1
 0 125 l 1,16,-1
EndSplineSet
Validated: 5
EndChar

StartChar: T
Encoding: 84 84 55
Width: 500
GlyphClass: 1
Flags: W
LayerCount: 2
Fore
SplineSet
125 0 m 1,0,-1
 250 0 l 1,1,-1
 250 500 l 1,2,-1
 375 500 l 1,3,-1
 375 625 l 1,4,-1
 0 625 l 1,5,-1
 0 500 l 1,6,-1
 125 500 l 1,7,-1
 125 0 l 1,0,-1
EndSplineSet
Validated: 9
EndChar

StartChar: U
Encoding: 85 85 56
Width: 625
GlyphClass: 1
Flags: W
LayerCount: 2
Fore
SplineSet
375 125 m 1,0,-1
 500 125 l 1,1,-1
 500 625 l 1,2,-1
 375 625 l 1,3,-1
 375 125 l 1,0,-1
125 625 m 1,4,-1
 0 625 l 1,5,-1
 0 125 l 1,6,-1
 125 125 l 1,7,-1
 125 625 l 1,4,-1
125 125 m 1,8,-1
 125 0 l 1,9,-1
 375 0 l 1,10,-1
 375 125 l 1,11,-1
 125 125 l 1,8,-1
EndSplineSet
Validated: 5
EndChar

StartChar: V
Encoding: 86 86 57
Width: 625
GlyphClass: 1
Flags: W
LayerCount: 2
Fore
SplineSet
0 125 m 1,0,-1
 125 125 l 1,1,-1
 125 625 l 1,2,-1
 0 625 l 1,3,-1
 0 125 l 1,0,-1
250 125 m 1,4,-1
 375 125 l 1,5,-1
 375 375 l 1,6,-1
 250 375 l 1,7,-1
 250 125 l 1,4,-1
375 625 m 1,8,-1
 375 375 l 1,9,-1
 500 375 l 1,10,-1
 500 625 l 1,11,-1
 375 625 l 1,8,-1
125 0 m 1,12,-1
 250 0 l 1,13,-1
 250 125 l 1,14,-1
 125 125 l 1,15,-1
 125 0 l 1,12,-1
EndSplineSet
Validated: 5
EndChar

StartChar: W
Encoding: 87 87 58
Width: 750
GlyphClass: 1
Flags: W
LayerCount: 2
Fore
SplineSet
125 625 m 1,0,-1
 0 625 l 1,1,-1
 0 125 l 1,2,-1
 125 125 l 1,3,-1
 125 625 l 1,0,-1
375 500 m 1,4,-1
 250 500 l 1,5,-1
 250 125 l 1,6,-1
 375 125 l 1,7,-1
 375 500 l 1,4,-1
125 0 m 1,8,-1
 250 0 l 1,9,-1
 250 125 l 1,10,-1
 125 125 l 1,11,-1
 125 0 l 1,8,-1
375 0 m 1,12,-1
 500 0 l 1,13,-1
 500 125 l 1,14,-1
 375 125 l 1,15,-1
 375 0 l 1,12,-1
500 625 m 1,16,-1
 500 125 l 1,17,-1
 625 125 l 1,18,-1
 625 625 l 1,19,-1
 500 625 l 1,16,-1
EndSplineSet
Validated: 5
EndChar

StartChar: X
Encoding: 88 88 59
Width: 625
GlyphClass: 1
Flags: W
LayerCount: 2
Fore
SplineSet
125 625 m 1,0,-1
 0 625 l 1,1,-1
 0 375 l 1,2,-1
 125 375 l 1,3,-1
 125 625 l 1,0,-1
500 625 m 1,4,-1
 375 625 l 1,5,-1
 375 375 l 1,6,-1
 500 375 l 1,7,-1
 500 625 l 1,4,-1
375 250 m 1,8,-1
 375 375 l 1,9,-1
 125 375 l 1,10,-1
 125 250 l 1,11,-1
 375 250 l 1,8,-1
125 250 m 1,12,-1
 0 250 l 1,13,-1
 0 0 l 1,14,-1
 125 0 l 1,15,-1
 125 250 l 1,12,-1
375 0 m 1,16,-1
 500 0 l 1,17,-1
 500 250 l 1,18,-1
 375 250 l 1,19,-1
 375 0 l 1,16,-1
EndSplineSet
Validated: 5
EndChar

StartChar: Y
Encoding: 89 89 60
Width: 625
GlyphClass: 1
Flags: W
LayerCount: 2
Fore
SplineSet
125 625 m 1,0,-1
 0 625 l 1,1,-1
 0 375 l 1,2,-1
 125 375 l 1,3,-1
 125 625 l 1,0,-1
375 375 m 1,4,-1
 125 375 l 1,5,-1
 125 250 l 1,6,-1
 375 250 l 1,7,-1
 375 125 l 1,8,-1
 500 125 l 1,9,-1
 500 625 l 1,10,-1
 375 625 l 1,11,-1
 375 375 l 1,4,-1
125 125 m 1,12,-1
 125 0 l 1,13,-1
 375 0 l 1,14,-1
 375 125 l 1,15,-1
 125 125 l 1,12,-1
EndSplineSet
Validated: 5
EndChar

StartChar: Z
Encoding: 90 90 61
Width: 500
GlyphClass: 1
Flags: W
LayerCount: 2
Fore
SplineSet
375 625 m 1,0,-1
 0 625 l 1,1,-1
 0 500 l 1,2,-1
 250 500 l 1,3,-1
 250 375 l 1,4,-1
 375 375 l 1,5,-1
 375 625 l 1,0,-1
250 375 m 1,6,-1
 125 375 l 1,7,-1
 125 250 l 1,8,-1
 250 250 l 1,9,-1
 250 375 l 1,6,-1
375 0 m 1,10,-1
 375 125 l 1,11,-1
 125 125 l 1,12,-1
 125 250 l 1,13,-1
 0 250 l 1,14,-1
 0 0 l 1,15,-1
 375 0 l 1,10,-1
EndSplineSet
Validated: 5
EndChar

StartChar: bracketleft
Encoding: 91 91 62
Width: 375
GlyphClass: 1
Flags: W
LayerCount: 2
Fore
SplineSet
0 625 m 1,0,-1
 0 0 l 1,1,-1
 250 0 l 1,2,-1
 250 125 l 1,3,-1
 125 125 l 1,4,-1
 125 500 l 1,5,-1
 250 500 l 1,6,-1
 250 625 l 1,7,-1
 0 625 l 1,0,-1
EndSplineSet
Validated: 9
EndChar

StartChar: backslash
Encoding: 92 92 63
Width: 750
GlyphClass: 1
Flags: W
LayerCount: 2
Fore
SplineSet
250 375 m 1,0,-1
 125 375 l 1,1,-1
 125 500 l 1,2,-1
 250 500 l 1,3,-1
 250 375 l 1,0,-1
125 625 m 1,4,-1
 125 500 l 1,5,-1
 0 500 l 1,6,-1
 0 625 l 1,7,-1
 125 625 l 1,4,-1
500 125 m 1,8,-1
 375 125 l 1,9,-1
 375 250 l 1,10,-1
 500 250 l 1,11,-1
 500 125 l 1,8,-1
375 250 m 1,12,-1
 250 250 l 1,13,-1
 250 375 l 1,14,-1
 375 375 l 1,15,-1
 375 250 l 1,12,-1
625 0 m 1,16,-1
 500 0 l 1,17,-1
 500 125 l 1,18,-1
 625 125 l 1,19,-1
 625 0 l 1,16,-1
EndSplineSet
Validated: 5
EndChar

StartChar: bracketright
Encoding: 93 93 64
Width: 375
GlyphClass: 1
Flags: W
LayerCount: 2
Fore
SplineSet
250 0 m 1,0,-1
 250 625 l 1,1,-1
 0 625 l 1,2,-1
 0 500 l 1,3,-1
 125 500 l 1,4,-1
 125 125 l 1,5,-1
 0 125 l 1,6,-1
 0 0 l 1,7,-1
 250 0 l 1,0,-1
EndSplineSet
Validated: 9
EndChar

StartChar: asciicircum
Encoding: 94 94 65
Width: 500
GlyphClass: 1
Flags: W
LayerCount: 2
Fore
SplineSet
125 625 m 1,0,-1
 125 500 l 1,1,-1
 250 500 l 1,2,-1
 250 625 l 1,3,-1
 125 625 l 1,0,-1
0 375 m 1,4,-1
 125 375 l 1,5,-1
 125 500 l 1,6,-1
 0 500 l 1,7,-1
 0 375 l 1,4,-1
250 375 m 1,8,-1
 375 375 l 1,9,-1
 375 500 l 1,10,-1
 250 500 l 1,11,-1
 250 375 l 1,8,-1
EndSplineSet
Validated: 5
EndChar

StartChar: underscore
Encoding: 95 95 66
Width: 625
GlyphClass: 1
Flags: W
LayerCount: 2
Fore
SplineSet
0 125 m 1,0,-1
 0 0 l 1,1,-1
 500 0 l 1,2,-1
 500 125 l 1,3,-1
 0 125 l 1,0,-1
EndSplineSet
Validated: 9
EndChar

StartChar: grave
Encoding: 96 96 67
Width: 375
GlyphClass: 1
Flags: W
LayerCount: 2
Fore
SplineSet
0 625 m 1,0,-1
 0 500 l 1,1,-1
 125 500 l 1,2,-1
 125 625 l 1,3,-1
 0 625 l 1,0,-1
125 375 m 1,4,-1
 250 375 l 1,5,-1
 250 500 l 1,6,-1
 125 500 l 1,7,-1
 125 375 l 1,4,-1
EndSplineSet
Validated: 5
EndChar

StartChar: a
Encoding: 97 97 68
Width: 625
GlyphClass: 1
Flags: W
LayerCount: 2
Fore
SplineSet
125 126 m 1,0,-1
 375 126 l 1,1,-1
 375 374 l 1,2,-1
 125 374 l 1,3,-1
 125 126 l 1,0,-1
125 375 m 1,4,-1
 125 500 l 1,5,-1
 500 500 l 1,6,-1
 500 0 l 1,7,-1
 125 0 l 1,8,-1
 125 125 l 1,9,-1
 0 125 l 1,10,-1
 0 375 l 1,11,-1
 125 375 l 1,4,-1
EndSplineSet
Validated: 1
EndChar

StartChar: b
Encoding: 98 98 69
Width: 625
GlyphClass: 1
Flags: W
LayerCount: 2
Fore
SplineSet
375 375 m 1,0,-1
 500 375 l 1,1,-1
 500 125 l 1,2,-1
 375 125 l 1,3,-1
 375 0 l 1,4,-1
 0 0 l 1,5,-1
 0 625 l 1,6,-1
 125 625 l 1,7,-1
 125 500 l 1,8,-1
 375 500 l 1,9,-1
 375 375 l 1,0,-1
125 126 m 1,10,-1
 375 126 l 1,11,-1
 375 374 l 1,12,-1
 125 374 l 1,13,-1
 125 126 l 1,10,-1
EndSplineSet
Validated: 1
EndChar

StartChar: c
Encoding: 99 99 70
Width: 500
GlyphClass: 1
Flags: W
LayerCount: 2
Fore
SplineSet
375 375 m 1,0,-1
 375 500 l 1,1,-1
 125 500 l 1,2,-1
 125 375 l 1,3,-1
 375 375 l 1,0,-1
125 375 m 1,4,-1
 0 375 l 1,5,-1
 0 125 l 1,6,-1
 125 125 l 1,7,-1
 125 375 l 1,4,-1
375 0 m 1,8,-1
 375 125 l 1,9,-1
 125 125 l 1,10,-1
 125 0 l 1,11,-1
 375 0 l 1,8,-1
EndSplineSet
Validated: 5
EndChar

StartChar: d
Encoding: 100 100 71
Width: 625
GlyphClass: 1
Flags: W
LayerCount: 2
Fore
SplineSet
125 126 m 1,0,-1
 375 126 l 1,1,-1
 375 374 l 1,2,-1
 125 374 l 1,3,-1
 125 126 l 1,0,-1
125 375 m 1,4,-1
 125 500 l 1,5,-1
 375 500 l 1,6,-1
 375 625 l 1,7,-1
 500 625 l 1,8,-1
 500 0 l 1,9,-1
 125 0 l 1,10,-1
 125 125 l 1,11,-1
 0 125 l 1,12,-1
 0 375 l 1,13,-1
 125 375 l 1,4,-1
EndSplineSet
Validated: 1
EndChar

StartChar: e
Encoding: 101 101 72
Width: 625
GlyphClass: 1
Flags: W
LayerCount: 2
Fore
SplineSet
250 251 m 1,0,-1
 250 374 l 1,1,-1
 125 374 l 1,2,-1
 125 251 l 1,3,-1
 250 251 l 1,0,-1
125 0 m 1,4,-1
 125 125 l 1,5,-1
 0 125 l 1,6,-1
 0 375 l 1,7,-1
 125 375 l 1,8,-1
 125 500 l 1,9,-1
 375 500 l 1,10,-1
 375 375 l 1,11,-1
 500 375 l 1,12,-1
 500 250 l 1,13,-1
 250 250 l 1,14,-1
 250 125 l 1,15,-1
 375 125 l 1,16,-1
 375 0 l 1,17,-1
 125 0 l 1,4,-1
EndSplineSet
Validated: 1
EndChar

StartChar: f
Encoding: 102 102 73
Width: 500
GlyphClass: 1
Flags: W
LayerCount: 2
Fore
SplineSet
375 625 m 1,0,-1
 250 625 l 1,1,-1
 250 500 l 1,2,-1
 375 500 l 1,3,-1
 375 625 l 1,0,-1
125 500 m 1,4,-1
 125 375 l 1,5,-1
 0 375 l 1,6,-1
 0 250 l 1,7,-1
 125 250 l 1,8,-1
 125 0 l 1,9,-1
 250 0 l 1,10,-1
 250 250 l 1,11,-1
 375 250 l 1,12,-1
 375 375 l 1,13,-1
 250 375 l 1,14,-1
 250 500 l 1,15,-1
 125 500 l 1,4,-1
EndSplineSet
Validated: 5
EndChar

StartChar: g
Encoding: 103 103 74
Width: 625
GlyphClass: 1
Flags: W
LayerCount: 2
Fore
SplineSet
125 126 m 1,0,-1
 375 126 l 1,1,-1
 375 374 l 1,2,-1
 125 374 l 1,3,-1
 125 126 l 1,0,-1
125 -125 m 1,4,-1
 375 -125 l 1,5,-1
 375 0 l 1,6,-1
 125 0 l 1,7,-1
 125 125 l 1,8,-1
 0 125 l 1,9,-1
 0 375 l 1,10,-1
 125 375 l 1,11,-1
 125 500 l 1,12,-1
 500 500 l 1,13,-1
 500 -125 l 1,14,-1
 375 -125 l 1,15,-1
 375 -250 l 1,16,-1
 125 -250 l 1,17,-1
 125 -125 l 1,4,-1
EndSplineSet
Validated: 5
EndChar

StartChar: h
Encoding: 104 104 75
Width: 625
GlyphClass: 1
Flags: W
LayerCount: 2
Fore
SplineSet
125 500 m 1,0,-1
 125 625 l 1,1,-1
 0 625 l 1,2,-1
 0 0 l 1,3,-1
 125 0 l 1,4,-1
 125 375 l 1,5,-1
 375 375 l 1,6,-1
 375 500 l 1,7,-1
 125 500 l 1,0,-1
375 0 m 1,8,-1
 500 0 l 1,9,-1
 500 375 l 1,10,-1
 375 375 l 1,11,-1
 375 0 l 1,8,-1
EndSplineSet
Validated: 5
EndChar

StartChar: i
Encoding: 105 105 76
Width: 250
GlyphClass: 1
Flags: W
LayerCount: 2
Fore
SplineSet
125 625 m 1,0,-1
 0 625 l 1,1,-1
 0 500 l 1,2,-1
 125 500 l 1,3,-1
 125 625 l 1,0,-1
125 375 m 1,4,-1
 0 375 l 1,5,-1
 0 0 l 1,6,-1
 125 0 l 1,7,-1
 125 375 l 1,4,-1
EndSplineSet
Validated: 9
EndChar

StartChar: j
Encoding: 106 106 77
Width: 375
GlyphClass: 1
Flags: W
LayerCount: 2
Fore
SplineSet
250 625 m 1,0,-1
 125 625 l 1,1,-1
 125 500 l 1,2,-1
 250 500 l 1,3,-1
 250 625 l 1,0,-1
250 375 m 1,4,-1
 125 375 l 1,5,-1
 125 -125 l 1,6,-1
 250 -125 l 1,7,-1
 250 375 l 1,4,-1
125 -125 m 1,8,-1
 0 -125 l 1,9,-1
 0 -250 l 1,10,-1
 125 -250 l 1,11,-1
 125 -125 l 1,8,-1
EndSplineSet
Validated: 5
EndChar

StartChar: k
Encoding: 107 107 78
Width: 625
GlyphClass: 1
Flags: W
LayerCount: 2
Fore
SplineSet
375 375 m 1,0,-1
 250 375 l 1,1,-1
 250 250 l 1,2,-1
 125 250 l 1,3,-1
 125 625 l 1,4,-1
 0 625 l 1,5,-1
 0 0 l 1,6,-1
 125 0 l 1,7,-1
 125 125 l 1,8,-1
 375 125 l 1,9,-1
 375 375 l 1,0,-1
500 500 m 1,10,-1
 375 500 l 1,11,-1
 375 375 l 1,12,-1
 500 375 l 1,13,-1
 500 500 l 1,10,-1
500 0 m 1,14,-1
 500 125 l 1,15,-1
 375 125 l 1,16,-1
 375 0 l 1,17,-1
 500 0 l 1,14,-1
EndSplineSet
Validated: 5
EndChar

StartChar: l
Encoding: 108 108 79
Width: 250
GlyphClass: 1
Flags: W
LayerCount: 2
Fore
SplineSet
125 625 m 1,0,-1
 0 625 l 1,1,-1
 0 0 l 1,2,-1
 125 0 l 1,3,-1
 125 625 l 1,0,-1
EndSplineSet
Validated: 9
EndChar

StartChar: m
Encoding: 109 109 80
Width: 750
GlyphClass: 1
Flags: W
LayerCount: 2
Fore
SplineSet
0 500 m 1,0,-1
 0 0 l 1,1,-1
 125 0 l 1,2,-1
 125 375 l 1,3,-1
 250 375 l 1,4,-1
 250 0 l 1,5,-1
 375 0 l 1,6,-1
 375 375 l 1,7,-1
 500 375 l 1,8,-1
 500 500 l 1,9,-1
 0 500 l 1,0,-1
500 0 m 1,10,-1
 625 0 l 1,11,-1
 625 375 l 1,12,-1
 500 375 l 1,13,-1
 500 0 l 1,10,-1
EndSplineSet
Validated: 5
EndChar

StartChar: n
Encoding: 110 110 81
Width: 625
GlyphClass: 1
Flags: W
LayerCount: 2
Fore
SplineSet
375 0 m 1,0,-1
 500 0 l 1,1,-1
 500 375 l 1,2,-1
 375 375 l 1,3,-1
 375 0 l 1,0,-1
125 375 m 1,4,-1
 375 375 l 1,5,-1
 375 500 l 1,6,-1
 0 500 l 1,7,-1
 0 0 l 1,8,-1
 125 0 l 1,9,-1
 125 375 l 1,4,-1
EndSplineSet
Validated: 5
EndChar

StartChar: o
Encoding: 111 111 82
Width: 625
GlyphClass: 1
Flags: W
LayerCount: 2
Fore
SplineSet
375 126 m 1,0,-1
 375 374 l 1,1,-1
 125 374 l 1,2,-1
 125 126 l 1,3,-1
 375 126 l 1,0,-1
125 125 m 1,4,-1
 0 125 l 1,5,-1
 0 375 l 1,6,-1
 125 375 l 1,7,-1
 125 500 l 1,8,-1
 375 500 l 1,9,-1
 375 375 l 1,10,-1
 500 375 l 1,11,-1
 500 125 l 1,12,-1
 375 125 l 1,13,-1
 375 0 l 1,14,-1
 125 0 l 1,15,-1
 125 125 l 1,4,-1
EndSplineSet
Validated: 1
EndChar

StartChar: p
Encoding: 112 112 83
Width: 625
GlyphClass: 1
Flags: W
LayerCount: 2
Fore
SplineSet
375 375 m 1,0,-1
 500 375 l 1,1,-1
 500 125 l 1,2,-1
 375 125 l 1,3,-1
 375 0 l 1,4,-1
 125 0 l 1,5,-1
 125 -250 l 1,6,-1
 0 -250 l 1,7,-1
 0 500 l 1,8,-1
 375 500 l 1,9,-1
 375 375 l 1,0,-1
125 126 m 1,10,-1
 375 126 l 1,11,-1
 375 374 l 1,12,-1
 125 374 l 1,13,-1
 125 126 l 1,10,-1
EndSplineSet
Validated: 1
EndChar

StartChar: q
Encoding: 113 113 84
Width: 625
GlyphClass: 1
Flags: W
LayerCount: 2
Fore
SplineSet
125 126 m 1,0,-1
 375 126 l 1,1,-1
 375 374 l 1,2,-1
 125 374 l 1,3,-1
 125 126 l 1,0,-1
125 375 m 1,4,-1
 125 500 l 1,5,-1
 500 500 l 1,6,-1
 500 -250 l 1,7,-1
 375 -250 l 1,8,-1
 375 0 l 1,9,-1
 125 0 l 1,10,-1
 125 125 l 1,11,-1
 0 125 l 1,12,-1
 0 375 l 1,13,-1
 125 375 l 1,4,-1
EndSplineSet
Validated: 1
EndChar

StartChar: r
Encoding: 114 114 85
Width: 500
GlyphClass: 1
Flags: W
LayerCount: 2
Fore
SplineSet
375 500 m 1,0,-1
 250 500 l 1,1,-1
 250 375 l 1,2,-1
 375 375 l 1,3,-1
 375 500 l 1,0,-1
125 250 m 1,4,-1
 250 250 l 1,5,-1
 250 375 l 1,6,-1
 125 375 l 1,7,-1
 125 500 l 1,8,-1
 0 500 l 1,9,-1
 0 0 l 1,10,-1
 125 0 l 1,11,-1
 125 250 l 1,4,-1
EndSplineSet
Validated: 5
EndChar

StartChar: s
Encoding: 115 115 86
Width: 625
GlyphClass: 1
Flags: W
LayerCount: 2
Fore
SplineSet
125 500 m 1,0,-1
 125 375 l 1,1,-1
 0 375 l 1,2,-1
 0 250 l 1,3,-1
 250 250 l 1,4,-1
 250 375 l 1,5,-1
 500 375 l 1,6,-1
 500 500 l 1,7,-1
 125 500 l 1,0,-1
0 125 m 1,8,-1
 0 0 l 1,9,-1
 375 0 l 1,10,-1
 375 125 l 1,11,-1
 500 125 l 1,12,-1
 500 250 l 1,13,-1
 250 250 l 1,14,-1
 250 125 l 1,15,-1
 0 125 l 1,8,-1
EndSplineSet
Validated: 5
EndChar

StartChar: t
Encoding: 116 116 87
Width: 500
GlyphClass: 1
Flags: W
LayerCount: 2
Fore
SplineSet
250 625 m 1,0,-1
 125 625 l 1,1,-1
 125 500 l 1,2,-1
 0 500 l 1,3,-1
 0 375 l 1,4,-1
 125 375 l 1,5,-1
 125 125 l 1,6,-1
 250 125 l 1,7,-1
 250 375 l 1,8,-1
 375 375 l 1,9,-1
 375 500 l 1,10,-1
 250 500 l 1,11,-1
 250 625 l 1,0,-1
375 0 m 1,12,-1
 375 125 l 1,13,-1
 250 125 l 1,14,-1
 250 0 l 1,15,-1
 375 0 l 1,12,-1
EndSplineSet
Validated: 5
EndChar

StartChar: u
Encoding: 117 117 88
Width: 625
GlyphClass: 1
Flags: W
LayerCount: 2
Fore
SplineSet
375 125 m 1,0,-1
 125 125 l 1,1,-1
 125 0 l 1,2,-1
 500 0 l 1,3,-1
 500 500 l 1,4,-1
 375 500 l 1,5,-1
 375 125 l 1,0,-1
125 500 m 1,6,-1
 0 500 l 1,7,-1
 0 125 l 1,8,-1
 125 125 l 1,9,-1
 125 500 l 1,6,-1
EndSplineSet
Validated: 5
EndChar

StartChar: v
Encoding: 118 118 89
Width: 625
GlyphClass: 1
Flags: W
LayerCount: 2
Fore
SplineSet
375 250 m 1,0,-1
 500 250 l 1,1,-1
 500 500 l 1,2,-1
 375 500 l 1,3,-1
 375 250 l 1,0,-1
125 250 m 1,4,-1
 125 500 l 1,5,-1
 0 500 l 1,6,-1
 0 125 l 1,7,-1
 125 125 l 1,8,-1
 125 250 l 1,9,-1
 125 250 l 1,4,-1
250 125 m 1,10,-1
 375 125 l 1,11,-1
 375 250 l 1,12,-1
 250 250 l 1,13,-1
 250 125 l 1,10,-1
125 0 m 1,14,-1
 250 0 l 1,15,-1
 250 125 l 1,16,-1
 125 125 l 1,17,-1
 125 0 l 1,14,-1
EndSplineSet
Validated: 5
EndChar

StartChar: w
Encoding: 119 119 90
Width: 750
GlyphClass: 1
Flags: W
LayerCount: 2
Fore
SplineSet
125 500 m 1,0,-1
 0 500 l 1,1,-1
 0 250 l 1,2,-1
 125 250 l 1,3,-1
 125 500 l 1,0,-1
500 250 m 1,4,-1
 625 250 l 1,5,-1
 625 500 l 1,6,-1
 500 500 l 1,7,-1
 500 250 l 1,4,-1
375 500 m 1,8,-1
 250 500 l 1,9,-1
 250 250 l 1,10,-1
 375 250 l 1,11,-1
 375 500 l 1,8,-1
125 0 m 1,12,-1
 250 0 l 1,13,-1
 250 250 l 1,14,-1
 125 250 l 1,15,-1
 125 0 l 1,12,-1
375 0 m 1,16,-1
 500 0 l 1,17,-1
 500 250 l 1,18,-1
 375 250 l 1,19,-1
 375 0 l 1,16,-1
EndSplineSet
Validated: 5
EndChar

StartChar: x
Encoding: 120 120 91
Width: 500
GlyphClass: 1
Flags: W
LayerCount: 2
Fore
SplineSet
0 500 m 1,0,-1
 0 375 l 1,1,-1
 125 375 l 1,2,-1
 125 500 l 1,3,-1
 0 500 l 1,0,-1
375 500 m 1,4,-1
 250 500 l 1,5,-1
 250 375 l 1,6,-1
 375 375 l 1,7,-1
 375 500 l 1,4,-1
250 375 m 1,8,-1
 125 375 l 1,9,-1
 125 125 l 1,10,-1
 250 125 l 1,11,-1
 250 375 l 1,8,-1
125 125 m 1,12,-1
 0 125 l 1,13,-1
 0 0 l 1,14,-1
 125 0 l 1,15,-1
 125 125 l 1,12,-1
375 0 m 1,16,-1
 375 125 l 1,17,-1
 250 125 l 1,18,-1
 250 0 l 1,19,-1
 375 0 l 1,16,-1
EndSplineSet
Validated: 5
EndChar

StartChar: y
Encoding: 121 121 92
Width: 625
GlyphClass: 1
Flags: W
LayerCount: 2
Fore
SplineSet
125 500 m 1,0,-1
 0 500 l 1,1,-1
 0 125 l 1,2,-1
 125 125 l 1,3,-1
 125 500 l 1,0,-1
375 0 m 1,4,-1
 375 -125 l 1,5,-1
 500 -125 l 1,6,-1
 500 500 l 1,7,-1
 375 500 l 1,8,-1
 375 125 l 1,9,-1
 125 125 l 1,10,-1
 125 0 l 1,11,-1
 375 0 l 1,4,-1
125 -125 m 1,12,-1
 125 -250 l 1,13,-1
 375 -250 l 1,14,-1
 375 -125 l 1,15,-1
 125 -125 l 1,12,-1
EndSplineSet
Validated: 5
EndChar

StartChar: z
Encoding: 122 122 93
Width: 625
GlyphClass: 1
Flags: W
LayerCount: 2
Fore
SplineSet
0 500 m 1,0,-1
 0 375 l 1,1,-1
 250 375 l 1,2,-1
 250 250 l 1,3,-1
 375 250 l 1,4,-1
 375 375 l 1,5,-1
 500 375 l 1,6,-1
 500 500 l 1,7,-1
 0 500 l 1,0,-1
125 125 m 1,8,-1
 0 125 l 1,9,-1
 0 0 l 1,10,-1
 500 0 l 1,11,-1
 500 125 l 1,12,-1
 250 125 l 1,13,-1
 250 250 l 1,14,-1
 125 250 l 1,15,-1
 125 125 l 1,8,-1
EndSplineSet
Validated: 5
EndChar

StartChar: braceleft
Encoding: 123 123 94
Width: 500
GlyphClass: 1
Flags: W
LayerCount: 2
Fore
SplineSet
125 625 m 1,0,-1
 125 375 l 1,1,-1
 250 375 l 1,2,-1
 250 500 l 1,3,-1
 375 500 l 1,4,-1
 375 625 l 1,5,-1
 125 625 l 1,0,-1
0 250 m 1,6,-1
 125 250 l 1,7,-1
 125 375 l 1,8,-1
 0 375 l 1,9,-1
 0 250 l 1,6,-1
125 0 m 1,10,-1
 375 0 l 1,11,-1
 375 125 l 1,12,-1
 250 125 l 1,13,-1
 250 250 l 1,14,-1
 125 250 l 1,15,-1
 125 0 l 1,10,-1
EndSplineSet
Validated: 5
EndChar

StartChar: bar
Encoding: 124 124 95
Width: 250
GlyphClass: 1
Flags: W
LayerCount: 2
Fore
SplineSet
0 0 m 1,0,-1
 125 0 l 1,1,-1
 125 625 l 1,2,-1
 0 625 l 1,3,-1
 0 0 l 1,0,-1
EndSplineSet
Validated: 9
EndChar

StartChar: braceright
Encoding: 125 125 96
Width: 500
GlyphClass: 1
Flags: W
LayerCount: 2
Fore
SplineSet
250 625 m 1,0,-1
 0 625 l 1,1,-1
 0 500 l 1,2,-1
 125 500 l 1,3,-1
 125 375 l 1,4,-1
 250 375 l 1,5,-1
 250 625 l 1,0,-1
125 125 m 1,6,-1
 0 125 l 1,7,-1
 0 0 l 1,8,-1
 250 0 l 1,9,-1
 250 250 l 1,10,-1
 125 250 l 1,11,-1
 125 125 l 1,6,-1
250 250 m 1,12,-1
 375 250 l 1,13,-1
 375 375 l 1,14,-1
 250 375 l 1,15,-1
 250 250 l 1,12,-1
EndSplineSet
Validated: 5
EndChar

StartChar: asciitilde
Encoding: 126 126 97
Width: 625
GlyphClass: 1
Flags: W
LayerCount: 2
Fore
SplineSet
125 625 m 1,0,-1
 125 500 l 1,1,-1
 250 500 l 1,2,-1
 250 625 l 1,3,-1
 125 625 l 1,0,-1
0 375 m 1,4,-1
 125 375 l 1,5,-1
 125 500 l 1,6,-1
 0 500 l 1,7,-1
 0 375 l 1,4,-1
375 500 m 1,8,-1
 500 500 l 1,9,-1
 500 625 l 1,10,-1
 375 625 l 1,11,-1
 375 500 l 1,8,-1
250 375 m 1,12,-1
 375 375 l 1,13,-1
 375 500 l 1,14,-1
 250 500 l 1,15,-1
 250 375 l 1,12,-1
EndSplineSet
Validated: 5
EndChar

StartChar: bullet
Encoding: 8226 8226 99
Width: 500
Flags: WO
LayerCount: 2
Fore
SplineSet
0 500 m 1,0,-1
 375 500 l 1,1,-1
 375 125 l 5,2,-1
 0 125 l 1,3,-1
 0 500 l 1,0,-1
EndSplineSet
EndChar
